<?xml version="1.0" encoding="UTF-8"?>
<svg xmlns="http://www.w3.org/2000/svg" width="1080" height="520" viewBox="0 0 1080 520" role="img" aria-labelledby="title description">
  <title id="title">Supriyo Saha — ASCII GitHub profile</title>
  <desc id="description">ASCII portrait, cosmology research information, and public GitHub statistics.</desc>
  <defs>
    <linearGradient id="accentLine" x1="0" y1="0" x2="1" y2="0">
      <stop offset="0" stop-color="#7dd3fc"/>
      <stop offset="1" stop-color="#c084fc"/>
    </linearGradient>
  </defs>
  <style>
    .mono { font-family: "JetBrains Mono", "Cascadia Code", Consolas, monospace; }
    .portrait { font-family: "Courier New", monospace; font-size: 11px; font-weight: 700; fill: #c4ccd6; white-space: pre; }
    .name { font: 700 28px "JetBrains Mono", "Cascadia Code", Consolas, monospace; fill: #f0f6fc; }
    .tagline { font: 14px "JetBrains Mono", "Cascadia Code", Consolas, monospace; fill: #8491a1; }
    .label { font: 700 12px "JetBrains Mono", "Cascadia Code", Consolas, monospace; letter-spacing: .7px; fill: #f0a45d; }
    .value { font: 15px "JetBrains Mono", "Cascadia Code", Consolas, monospace; fill: #b9d9f5; }
    .stat-label { font: 700 10px "JetBrains Mono", "Cascadia Code", Consolas, monospace; letter-spacing: .7px; fill: #8491a1; }
    .stat-value { font: 700 21px "JetBrains Mono", "Cascadia Code", Consolas, monospace; fill: #f0f6fc; }
  </style>

  <rect x="2" y="2" width="1076" height="516" rx="18" fill="#0d1117" stroke="#303b49" stroke-width="3"/>
  <rect x="3" y="3" width="1074" height="43" rx="16" fill="#111923"/>
  <rect x="3" y="30" width="1074" height="17" fill="#111923"/>
  <circle cx="25" cy="24" r="6" fill="#ff5f56"/>
  <circle cx="45" cy="24" r="6" fill="#ffbd2e"/>
  <circle cx="65" cy="24" r="6" fill="#27c93f"/>
  <text x="540" y="29" text-anchor="middle" class="mono" font-size="12" fill="#8491a1">supriyo@cosmos: ~/profile</text>

  <text class="portrait" xml:space="preserve"><tspan x="37" y="60.0">                %%#+:.:--=*#***:</tspan>
<tspan x="37" y="72.1">              ******+***+*##+*+:.=</tspan>
<tspan x="37" y="84.2">            *==++*##%@@%###%%%#*-+*:</tspan>
<tspan x="37" y="96.3">           %###%%%@%%##%%@@@%%@@%*#+=</tspan>
<tspan x="37" y="108.4">          ##%@@@@@@@%%%%##%%@@@@@%%%%%</tspan>
<tspan x="37" y="120.5">         #@@@@%%@@%%%%%%%%%%%@@@@%@%%%@</tspan>
<tspan x="37" y="132.6">        %@@@@@@%%%%%%%%%%%%%%%@@@@@@@@%@</tspan>
<tspan x="37" y="144.7">        @@@@@@@@%%%%%%##%%%%@@@@@@@@@@@@</tspan>
<tspan x="37" y="156.8">       @@@@@@@@@@@@@%%%%@@@@@@@@@@@@@@@@@</tspan>
<tspan x="37" y="168.9">       @@@@@@@@@@@@@@%%#*++=--=++*%@@@@@@</tspan>
<tspan x="37" y="181.0">      @@@@@@@@@@@@@@#*=:.       ..-#@@@@@@</tspan>
<tspan x="37" y="193.1">      @@@@@@@@@@@@%*=:.         ...:#@@@@@</tspan>
<tspan x="37" y="205.2">      @@@@@@@@@%%*=-.            ...=%@@@@</tspan>
<tspan x="37" y="217.3">      @@@@@@#**+=:.           ...:..:%@@@@</tspan>
<tspan x="37" y="229.4">      #%@@@%===+++++=-.   .:-**+=---:*@@@#</tspan>
<tspan x="37" y="241.5">      ==%@@*==+++*+****=-:-=**+=+=-:.=%@%+</tspan>
<tspan x="37" y="253.6">      =::%@*+=**#*%*=**%=:++=+%*+*=:.=+-=*</tspan>
<tspan x="37" y="265.7">      =--=%#==+++===:-+#  :+.:::::.::=..-+</tspan>
<tspan x="37" y="277.8">      +=+++*-=-:......=:   ::       .=: :+</tspan>
<tspan x="37" y="289.9">       =--**---:.   .--     .:......:-. :</tspan>
<tspan x="37" y="302.0">       +=-=+=---:...:=+*-::=-........-. -</tspan>
<tspan x="37" y="314.1">        =--=+---:.   :=#++--:  .   .:- :</tspan>
<tspan x="37" y="326.2">        ----*+=--:.:-=---:::::=-. ..:=:-</tspan>
<tspan x="37" y="338.3">      #+=-=+*#+==::=+*+-:...:--:...:=++==+</tspan>
<tspan x="37" y="350.4">   #####*****##*+=:.:--=--::.. ..::=+++==++==</tspan>
<tspan x="37" y="362.5"> @@@@@@@@@@@@%%%#*+-::::--:.   :--+#******+++++</tspan>
<tspan x="37" y="374.6">@@%%%%%%%%%@%%*@@%#*=:.      ..-=**%@@@@@@@@@@%%</tspan>
<tspan x="37" y="386.7">**+=------=*%@**%@%%%*+=-----+**#+-#@@@@@@@@@@@@</tspan>
<tspan x="37" y="398.8">+=-:.   ..-%@@#=+#%@@@@%###%%%#*-.:*++##%%@@@@@@</tspan>
<tspan x="37" y="410.9">+=-.     -%@@@#===+#%%@@%%%#*=-...:%#==*#*=+#%%%</tspan>
<tspan x="37" y="423.0">==-.   .=%@@@%%+----=+++=-:.......:%@#+**+-=+***</tspan>
<tspan x="37" y="435.1">==-::-*#%%@@@@%+-:.....::.....  ..:#@%%#*+--=++*</tspan>
<tspan x="37" y="447.2">+**#%%%@%%%@@@@#-::..   ..      ...#@%%%%#******</tspan>
<tspan x="37" y="459.3">%%%%%%%%%#%%@@@@#-....          : .%%%%%%#%%%%##</tspan>
<tspan x="37" y="471.4">%%%%%%%%@##%%@@@@%*-           .. -%%%%%%%##%%%#</tspan>
<tspan x="37" y="483.5">%%%%%%@%@%###%%@@@@%=            .#%%%%%%%####%%</tspan>
<tspan x="37" y="495.6">%%%%%%%%%@%####%%@@@%*=.         =%#%%#%%%%%%@%@</tspan>
<tspan x="37" y="507.7">%%%%%%%%%@@%%%%@@@@@@@%#+.      -%##%%%@@@@@%@@%</tspan></text>
  <line x1="426" y1="64" x2="426" y2="485" stroke="#303b49" stroke-width="2"/>

  <text x="460" y="86" class="name">Supriyo Saha</text>
  <text x="460" y="110" class="tagline">cosmologist · researcher · science communicator</text>
  <rect x="460" y="121" width="575" height="3" rx="2" fill="url(#accentLine)"/>
  <text x="460" y="151" class="label">ROLE</text><text x="575" y="151" class="value">Integrated PhD student</text><text x="460" y="190" class="label">INSTITUTE</text><text x="575" y="190" class="value">TIFR Mumbai</text><text x="460" y="229" class="label">RESEARCH</text><text x="575" y="229" class="value">Lyα emitters · cosmic reionization</text><text x="460" y="268" class="label">METHODS</text><text x="575" y="268" class="value">Radiative transfer · simulations</text><text x="460" y="307" class="label">TOOLS</text><text x="575" y="307" class="value">Python · RASCAS · RAMSES · MP-Gadget</text>

  <text x="460" y="334" class="mono" font-size="12" fill="#8491a1">GITHUB STATISTICS</text>
  <rect x="460" y="352" width="135" height="64" rx="10" fill="#111923" stroke="#303b49"/><text x="473" y="374" class="stat-label">PUBLIC REPOS</text><text x="473" y="402" class="stat-value">19</text><rect x="611" y="352" width="135" height="64" rx="10" fill="#111923" stroke="#303b49"/><text x="624" y="374" class="stat-label">STARS</text><text x="624" y="402" class="stat-value">1</text><rect x="762" y="352" width="135" height="64" rx="10" fill="#111923" stroke="#303b49"/><text x="775" y="374" class="stat-label">FOLLOWERS</text><text x="775" y="402" class="stat-value">7</text>
  <text x="460" y="447" class="mono" font-size="11" fill="#8491a1">TOP LANGUAGES  ·  Jupyter Notebook · Python · HTML · C</text>
  <text x="460" y="491" class="mono" font-size="12" fill="#7dd3fc">$ studying light from the first galaxies_</text>
  <text x="1035" y="491" text-anchor="end" class="mono" font-size="10" fill="#8491a1">updated 04 Aug 2026</text>
</svg>
